<svg width="101" height="100" viewBox="0 0 101 100" fill="none" xmlns="http://www.w3.org/2000/svg">
<path d="M78.9939 8.52309V6.23618C78.9939 5.37789 78.653 4.55476 78.0461 3.94786C77.4392 3.34095 76.616 3 75.7577 3C74.8994 3 74.0763 3.34095 73.4694 3.94786C72.8625 4.55476 72.5215 5.37789 72.5215 6.23618V8.39364H61.6839V6.23618C61.6839 5.37789 61.343 4.55476 60.7361 3.94786C60.1292 3.34095 59.306 3 58.4477 3C57.5895 3 56.7663 3.34095 56.1594 3.94786C55.5525 4.55476 55.2116 5.37789 55.2116 6.23618V8.39364H44.3667V6.23618C44.3667 5.37789 44.0258 4.55476 43.4189 3.94786C42.812 3.34095 41.9889 3 41.1306 3C40.2723 3 39.4491 3.34095 38.8422 3.94786C38.2353 4.55476 37.8944 5.37789 37.8944 6.23618V8.39364H27.0496V6.23618C27.0496 5.37789 26.7086 4.55476 26.1017 3.94786C25.4948 3.34095 24.6717 3 23.8134 3C22.9551 3 22.132 3.34095 21.5251 3.94786C20.9182 4.55476 20.5772 5.37789 20.5772 6.23618V8.52309C16.5703 8.97525 12.8698 10.8862 10.1814 13.8916C7.49298 16.897 6.0046 20.7867 6 24.8191L6 79.5969C6.00381 83.945 7.7323 88.1141 10.8062 91.1894C13.8802 94.2647 18.0485 95.995 22.3967 96.0007H77.196C81.5442 95.995 85.7125 94.2647 88.7865 91.1894C91.8604 88.1141 93.5889 83.945 93.5927 79.5969V24.8191C93.5875 20.7834 92.0961 16.8909 89.4032 13.885C86.7104 10.8791 83.0048 8.97032 78.9939 8.52309ZM87.1059 79.5969C87.104 82.2265 86.0601 84.7483 84.2026 86.6098C82.3452 88.4713 79.8257 89.5207 77.196 89.5284H22.3967C19.7645 89.5245 17.2413 88.4767 15.3808 86.6148C13.5202 84.753 12.4743 82.229 12.4724 79.5969V26.8183H87.1059V79.5969Z" fill="#1A222C"/>
<path d="M74.9163 94.7565C78.2403 94.7565 81.4897 93.7708 84.2536 91.9241C87.0174 90.0773 89.1715 87.4525 90.4436 84.3815C91.7156 81.3105 92.0485 77.9312 91.4 74.6711C90.7515 71.4109 89.1508 68.4163 86.8004 66.0659C84.4499 63.7154 81.4553 62.1147 78.1951 61.4663C74.935 60.8178 71.5557 61.1506 68.4847 62.4226C65.4137 63.6947 62.7889 65.8488 60.9422 68.6127C59.0954 71.3765 58.1097 74.6259 58.1097 77.9499C58.1097 82.4073 59.8804 86.6821 63.0323 89.8339C66.1841 92.9858 70.4589 94.7565 74.9163 94.7565Z" fill="white"/>
<path d="M74.9164 97.9999C70.2679 98.0081 65.7604 96.4037 62.1626 93.4602C58.5647 90.5167 56.0992 86.4164 55.1863 81.8584C54.2734 77.3004 54.9698 72.5669 57.1566 68.4649C59.3435 64.3629 62.8854 61.1464 67.1785 59.3637C71.4716 57.5811 76.2502 57.3427 80.6994 58.6893C85.1486 60.0358 88.993 62.8839 91.5772 66.7479C94.1614 70.6119 95.3254 75.2526 94.8707 79.8788C94.416 84.5051 92.3707 88.8303 89.0837 92.1173C85.3255 95.8753 80.2311 97.9906 74.9164 97.9999ZM74.9164 64.3868C71.7745 64.3834 68.7287 65.4697 66.2981 67.4606C63.8675 69.4515 62.2026 72.2237 61.5872 75.3047C60.9717 78.3857 61.4438 81.5848 62.923 84.3566C64.4022 87.1285 66.7969 89.3016 69.699 90.5056C72.601 91.7095 75.8308 91.8697 78.8377 90.9589C81.8447 90.0481 84.4427 88.1227 86.189 85.5108C87.9352 82.8989 88.7216 79.7623 88.4141 76.6355C88.1066 73.5087 86.7243 70.5853 84.5027 68.3637C83.2455 67.102 81.7514 66.1012 80.1063 65.4187C78.4612 64.7363 76.6974 64.3856 74.9164 64.3868Z" fill="#1A222C"/>
<path d="M79.1162 81.8047H74.2403C73.5715 81.8028 72.9305 81.5363 72.4575 81.0633C71.9846 80.5903 71.718 79.9494 71.7161 79.2805V73.5633C71.6899 73.2167 71.7355 72.8685 71.8501 72.5404C71.9647 72.2123 72.1459 71.9114 72.3822 71.6566C72.6185 71.4018 72.9048 71.1985 73.2233 71.0594C73.5418 70.9204 73.8856 70.8486 74.2331 70.8486C74.5807 70.8486 74.9245 70.9204 75.243 71.0594C75.5615 71.1985 75.8478 71.4018 76.0841 71.6566C76.3204 71.9114 76.5016 72.2123 76.6162 72.5404C76.7308 72.8685 76.7764 73.2167 76.7502 73.5633V76.7635H79.109C79.4401 76.7625 79.7682 76.8269 80.0744 76.953C80.3806 77.0791 80.659 77.2643 80.8935 77.4982C81.1279 77.732 81.314 78.0098 81.4409 78.3156C81.5679 78.6215 81.6332 78.9494 81.6332 79.2805C81.6313 79.9494 81.3648 80.5903 80.8918 81.0633C80.4188 81.5363 79.7779 81.8028 79.109 81.8047H79.1162Z" fill="#1A222C"/>
<path d="M62.2449 43.8981H64.6469C64.9439 43.8896 65.2355 43.8163 65.5013 43.6834C65.7672 43.5505 66.0008 43.3611 66.1859 43.1286C66.6008 42.5992 66.8262 41.9459 66.8259 41.2732C66.8273 40.6026 66.6018 39.9512 66.1859 39.425C65.9927 39.1849 65.7466 38.9929 65.4667 38.8641C65.1995 38.7344 64.9078 38.6633 64.6109 38.6555H62.2449C61.948 38.6633 61.6563 38.7344 61.3891 38.8641C61.1104 38.9949 60.8647 39.1866 60.67 39.425C60.2541 39.9512 60.0285 40.6026 60.0299 41.2732C60.0297 41.9459 60.255 42.5992 60.67 43.1286C60.8649 43.365 61.1108 43.5543 61.3891 43.6824C61.6546 43.8176 61.9471 43.8914 62.2449 43.8981Z" fill="#00C7D8"/>
<path d="M75.916 43.8981H78.3539C78.6519 43.8924 78.9446 43.8186 79.2097 43.6824C79.4888 43.5556 79.7349 43.3661 79.9288 43.1286C80.3403 42.5974 80.5653 41.9452 80.5689 41.2732C80.5664 40.6032 80.3413 39.953 79.9288 39.425C79.7334 39.1873 79.4878 38.9957 79.2097 38.8641C78.9428 38.7336 78.6509 38.6624 78.3539 38.6555H75.916C75.6139 38.6589 75.3165 38.7302 75.0458 38.8641C74.7652 38.9918 74.5188 39.184 74.3266 39.425C73.9142 39.953 73.689 40.6032 73.6866 41.2732C73.6881 41.9444 73.9105 42.5964 74.3194 43.1286C74.5138 43.3674 74.7597 43.5592 75.0386 43.6896C75.3093 43.8235 75.6067 43.8948 75.9088 43.8981H75.916Z" fill="#00C7D8"/>
<path d="M66.8547 52.9524C66.8621 52.2798 66.6387 51.6249 66.2218 51.097C66.0356 50.8645 65.8006 50.6758 65.5334 50.5441C65.2663 50.4124 64.9734 50.3409 64.6756 50.3347H62.2449C61.948 50.3425 61.6563 50.4136 61.3891 50.5433C61.1128 50.6748 60.8677 50.8635 60.67 51.097C60.2553 51.6252 60.0299 52.2773 60.0299 52.9488C60.0299 53.6204 60.2553 54.2725 60.67 54.8006C60.8647 55.0391 61.1104 55.2308 61.3891 55.3616C61.6551 55.4946 61.9476 55.5658 62.2449 55.5701H64.6469C64.9386 55.5717 65.2267 55.5052 65.4883 55.376C65.7673 55.2458 66.0132 55.054 66.2074 54.815C66.4239 54.5651 66.5878 54.274 66.6893 53.9592C66.8018 53.6356 66.8577 53.295 66.8547 52.9524Z" fill="#00C7D8"/>
<path d="M23.648 38.6555H21.2244C20.9265 38.6613 20.6338 38.7351 20.3687 38.8713C20.0893 38.9976 19.8431 39.1872 19.6495 39.425C19.2371 39.953 19.0119 40.6032 19.0095 41.2732C19.0171 41.9469 19.2472 42.5992 19.6639 43.1286C19.8578 43.3661 20.1039 43.5556 20.383 43.6824C20.6481 43.8186 20.9409 43.8924 21.2388 43.8981H23.6624C23.9626 43.8922 24.2576 43.8184 24.5254 43.6824C24.8032 43.5535 25.0488 43.3643 25.2445 43.1286C25.656 42.5974 25.881 41.9452 25.8846 41.2732C25.8821 40.6032 25.6569 39.953 25.2445 39.425C25.0592 39.1892 24.8236 38.9977 24.5549 38.8645C24.2861 38.7314 23.991 38.66 23.6911 38.6555H23.648Z" fill="#00C7D8"/>
<path d="M37.3335 38.6555H34.8883C34.5905 38.6623 34.298 38.736 34.0325 38.8713C33.7645 38.9996 33.5304 39.1893 33.3494 39.425C32.9335 39.9512 32.7079 40.6026 32.7093 41.2732C32.7029 41.9433 32.9206 42.5964 33.3278 43.1286C33.5129 43.3611 33.7465 43.5505 34.0123 43.6834C34.2781 43.8163 34.5697 43.8896 34.8668 43.8981H37.3119C37.6097 43.8914 37.9022 43.8176 38.1677 43.6824C38.4455 43.5535 38.6912 43.3643 38.8868 43.1286C39.2963 42.5967 39.5187 41.9445 39.5197 41.2732C39.5198 40.604 39.2972 39.9537 38.8868 39.425C38.7023 39.1901 38.4678 38.9992 38.2004 38.8661C37.933 38.733 37.6393 38.6611 37.3406 38.6555H37.3335Z" fill="#00C7D8"/>
<path d="M50.9973 38.6555H48.6385C48.3407 38.6623 48.0482 38.736 47.7827 38.8713C47.5016 38.9947 47.2548 39.1848 47.0636 39.425C46.6477 39.9512 46.4221 40.6026 46.4235 41.2732C46.4233 41.9459 46.6486 42.5992 47.0636 43.1286C47.2487 43.3611 47.4823 43.5505 47.7481 43.6834C48.0139 43.8163 48.3055 43.8896 48.6026 43.8981H51.0333C51.3311 43.8882 51.6233 43.8144 51.8901 43.6816C52.1569 43.5488 52.392 43.3602 52.5795 43.1286C52.9889 42.5967 53.2114 41.9445 53.2123 41.2732C53.2125 40.604 52.9898 39.9537 52.5795 39.425C52.3858 39.1855 52.1398 38.9936 51.8603 38.8641C51.5932 38.7344 51.3014 38.6633 51.0045 38.6555H50.9973Z" fill="#00C7D8"/>
<path d="M23.648 50.2986H21.2244C20.9275 50.3055 20.6355 50.3766 20.3686 50.5071C20.0924 50.6386 19.8472 50.8274 19.6495 51.0609C19.2333 51.5919 19.0083 52.2477 19.0109 52.9224C19.0136 53.5971 19.2436 54.2511 19.6639 54.7789C19.8575 55.0184 20.1036 55.2103 20.383 55.3398C20.6499 55.4703 20.9418 55.5415 21.2388 55.5484H23.6624C23.9621 55.5449 24.2571 55.4736 24.5253 55.3398C24.8035 55.2082 25.0491 55.0167 25.2445 54.7789C25.6592 54.2507 25.8845 53.5986 25.8845 52.9271C25.8845 52.2556 25.6592 51.6035 25.2445 51.0753C25.0467 50.8418 24.8016 50.653 24.5253 50.5215C24.2527 50.3839 23.9532 50.3078 23.648 50.2986Z" fill="#00C7D8"/>
<path d="M37.3334 50.2986H34.8883C34.5914 50.3064 34.2997 50.3775 34.0325 50.5071C33.7675 50.6403 33.5345 50.8292 33.3493 51.0609C32.928 51.5879 32.6967 52.2415 32.6928 52.9161C32.6889 53.5908 32.9126 54.2471 33.3277 54.7789C33.5106 55.0147 33.7441 55.2064 34.0109 55.3398C34.2781 55.4695 34.5699 55.5406 34.8667 55.5484H37.3119C37.6092 55.5441 37.9017 55.4728 38.1676 55.3398C38.4458 55.2082 38.6914 55.0167 38.8868 54.7789C39.2971 54.2502 39.5198 53.5999 39.5196 52.9307C39.5187 52.2594 39.2962 51.6072 38.8868 51.0753C38.6891 50.8418 38.4439 50.653 38.1676 50.5215C37.9005 50.3919 37.6087 50.3208 37.3119 50.313L37.3334 50.2986Z" fill="#00C7D8"/>
<path d="M50.9973 50.2986H48.6385C48.3417 50.3064 48.0499 50.3775 47.7827 50.5071C47.5048 50.6359 47.2591 50.8251 47.0636 51.0609C46.6489 51.5891 46.4235 52.2412 46.4235 52.9127C46.4235 53.5842 46.6489 54.2363 47.0636 54.7645C47.2567 55.0046 47.5029 55.1966 47.7827 55.3255C48.0499 55.4551 48.3417 55.5262 48.6385 55.534H51.0693C51.3666 55.5297 51.6591 55.4584 51.925 55.3255C52.2045 55.1959 52.4505 55.004 52.6442 54.7645C53.0545 54.2358 53.2772 53.5856 53.2771 52.9163C53.2761 52.245 53.0536 51.5928 52.6442 51.0609C52.458 50.8284 52.223 50.6397 51.9558 50.5079C51.6886 50.3762 51.3958 50.3048 51.098 50.2986H50.9973Z" fill="#00C7D8"/>
<path d="M23.648 61.9705H21.2244C20.9251 61.9772 20.6308 62.0484 20.3615 62.179C20.0958 62.3143 19.8627 62.5057 19.6783 62.74C19.2636 63.2681 19.0382 63.9202 19.0382 64.5918C19.0382 65.2633 19.2636 65.9154 19.6783 66.4436C19.8645 66.6761 20.0995 66.8648 20.3667 66.9965C20.6338 67.1282 20.9266 67.1997 21.2244 67.2059H23.648C23.9482 67.199 24.2431 67.1258 24.5117 66.9916C24.7802 66.8573 25.0158 66.6652 25.2014 66.4292C25.616 65.901 25.8414 65.2489 25.8414 64.5774C25.8414 63.9059 25.616 63.2538 25.2014 62.7256C25.0147 62.4924 24.7784 62.3036 24.5097 62.173C24.2411 62.0424 23.9467 61.9732 23.648 61.9705Z" fill="#00C7D8"/>
<path d="M37.3335 61.9705H34.8883C34.5914 61.9774 34.2994 62.0485 34.0325 62.179C33.7657 62.3125 33.5322 62.5042 33.3493 62.74C32.9347 63.2681 32.7093 63.9202 32.7093 64.5918C32.7093 65.2633 32.9347 65.9154 33.3493 66.4436C33.5358 66.6816 33.7744 66.8735 34.0469 67.0045C34.3141 67.1342 34.6059 67.2053 34.9027 67.2131H37.3478C37.6456 67.2069 37.9385 67.1354 38.2056 67.0037C38.4728 66.872 38.7078 66.6832 38.894 66.4508C39.304 65.9205 39.5264 65.2692 39.5264 64.599C39.5264 63.9287 39.304 63.2774 38.894 62.7471C38.7004 62.5076 38.4543 62.3157 38.1749 62.1862C37.9126 62.056 37.626 61.9825 37.3335 61.9705Z" fill="#00C7D8"/>
<path d="M50.9973 61.9705H48.6385C48.3417 61.9783 48.0499 62.0494 47.7827 62.179C47.5029 62.3079 47.2567 62.4999 47.0636 62.74C46.6489 63.2681 46.4235 63.9202 46.4235 64.5918C46.4235 65.2633 46.6489 65.9154 47.0636 66.4436C47.2569 66.6816 47.5032 66.8712 47.7827 66.9973C48.0499 67.127 48.3417 67.1981 48.6385 67.2059H51.0693C51.366 67.2038 51.6585 67.135 51.925 67.0045C52.2057 66.8803 52.4524 66.6904 52.6442 66.4508C53.0542 65.9205 53.2766 65.2692 53.2766 64.599C53.2766 63.9287 53.0542 63.2774 52.6442 62.7471C52.4598 62.5129 52.2267 62.3215 51.961 62.1862C51.6909 62.0576 51.397 61.9866 51.098 61.9777L50.9973 61.9705Z" fill="#00C7D8"/>
<path d="M23.648 73.5991H21.2244C20.9243 73.5989 20.6284 73.6704 20.3615 73.8077C20.0958 73.9429 19.8627 74.1343 19.6783 74.3686C19.2636 74.8968 19.0382 75.5489 19.0382 76.2204C19.0382 76.8919 19.2636 77.544 19.6783 78.0722C19.876 78.3057 20.1211 78.4945 20.3974 78.626C20.6643 78.7565 20.9562 78.8276 21.2532 78.8345H23.6768C23.976 78.8278 24.2704 78.7566 24.5397 78.626C24.8176 78.4971 25.0632 78.3079 25.2589 78.0722C25.6736 77.544 25.8989 76.8919 25.8989 76.2204C25.8989 75.5489 25.6736 74.8968 25.2589 74.3686C25.0656 74.1287 24.8195 73.9367 24.5397 73.8077C24.2642 73.6659 23.9579 73.5942 23.648 73.5991Z" fill="#00C7D8"/>
<path d="M37.3335 73.5991H34.8883C34.5905 73.5989 34.2969 73.6705 34.0325 73.8077C33.7657 73.9411 33.5322 74.1328 33.3493 74.3686C32.9347 74.8968 32.7093 75.5489 32.7093 76.2204C32.7093 76.892 32.9347 77.544 33.3493 78.0722C33.5345 78.3039 33.7676 78.4928 34.0325 78.626C34.2997 78.7557 34.5915 78.8267 34.8883 78.8345H37.3335C37.6313 78.8284 37.9241 78.7569 38.1912 78.6252C38.4584 78.4935 38.6934 78.3047 38.8796 78.0722C39.2896 77.542 39.512 76.8907 39.512 76.2204C39.512 75.5502 39.2896 74.8989 38.8796 74.3686C38.688 74.127 38.4415 73.9347 38.1605 73.8077C37.9045 73.6756 37.6215 73.6043 37.3335 73.5991Z" fill="#00C7D8"/>
</svg>
