<svg width="101" height="100" viewBox="0 0 101 100" fill="none" xmlns="http://www.w3.org/2000/svg">
<g clip-path="url(#clip0)">
<path d="M89.661 98.1737H12.3713C9.88496 98.1819 7.4932 97.2211 5.70361 95.4949C3.91401 93.7688 2.86743 91.4133 2.78595 88.9283L1.00619 40.4081C0.919943 38.0066 1.73761 35.6601 3.29763 33.8322C4.85764 32.0044 7.04651 30.8282 9.43173 30.5361L9.20509 24.3302C9.13363 22.3188 9.77444 20.3466 11.0146 18.7614C12.2548 17.1761 14.0147 16.0795 15.9842 15.6647L15.7909 8.9456C15.7587 7.91423 15.9341 6.88692 16.3065 5.92459C16.6789 4.96227 17.2408 4.08455 17.9589 3.34349C18.6769 2.60244 19.5365 2.01315 20.4866 1.61059C21.4367 1.20803 22.458 1.00039 23.4899 1L78.5092 1C79.5454 1.00108 80.5708 1.21097 81.5241 1.61715C82.4775 2.02332 83.3392 2.61745 84.0578 3.36406C84.7764 4.11066 85.3372 4.99443 85.7066 5.96257C86.0761 6.93072 86.2467 7.9634 86.2081 8.99893L86.0148 15.6647C87.9843 16.0795 89.7443 17.1761 90.9844 18.7614C92.2246 20.3466 92.8654 22.3188 92.7939 24.3302L92.5673 30.5094C94.9573 30.8019 97.15 31.9819 98.7107 33.8154C100.271 35.649 101.086 38.0021 100.993 40.4081L99.2197 88.9283C99.1384 91.4087 98.0955 93.7603 96.3117 95.4856C94.5278 97.2111 92.1428 98.175 89.661 98.1737ZM10.5982 37.8084C10.2947 37.8064 9.99387 37.8659 9.71396 37.9834C9.43405 38.1008 9.18086 38.2738 8.96966 38.4919C8.75847 38.7099 8.59365 38.9685 8.48518 39.252C8.37671 39.5355 8.32683 39.8381 8.33854 40.1414L10.105 88.6616C10.1257 89.2446 10.3725 89.7966 10.7929 90.2009C11.2134 90.6052 11.7747 90.8301 12.358 90.828H89.661C90.2442 90.8317 90.8057 90.6072 91.2255 90.2024C91.6452 89.7975 91.89 89.2445 91.9074 88.6616L93.6605 40.1414C93.6731 39.8389 93.6241 39.5369 93.5164 39.2538C93.4087 38.9708 93.2445 38.7126 93.0339 38.495C92.8219 38.2817 92.5694 38.1128 92.2912 37.9984C92.0131 37.8839 91.7149 37.8261 91.4141 37.8284L10.5982 37.8084ZM16.7774 30.4761H85.2216L85.4549 24.0969C85.4604 23.9355 85.4337 23.7746 85.3765 23.6235C85.3193 23.4725 85.2327 23.3343 85.1216 23.217C85.0089 23.099 84.8734 23.005 84.7233 22.9409C84.5732 22.8767 84.4116 22.8437 84.2484 22.8437H17.744C17.5818 22.8442 17.4214 22.8775 17.2724 22.9416C17.1235 23.0058 16.9891 23.0995 16.8774 23.217C16.7664 23.3343 16.6797 23.4725 16.6225 23.6235C16.5653 23.7746 16.5386 23.9355 16.5441 24.0969L16.7774 30.4761ZM23.3232 15.5047H78.6491L78.8425 8.7523C78.8487 8.69905 78.8429 8.64508 78.8256 8.59434C78.8083 8.5436 78.7799 8.49736 78.7425 8.459C78.7087 8.42439 78.6683 8.39706 78.6235 8.37872C78.5788 8.36037 78.5308 8.3514 78.4825 8.35235H23.4899C23.4414 8.35057 23.3932 8.35917 23.3483 8.37756C23.3035 8.39595 23.2631 8.42372 23.2299 8.459C23.1946 8.4933 23.1673 8.535 23.15 8.5811C23.1327 8.6272 23.1258 8.67657 23.1299 8.72563L23.3232 15.5047Z" fill="#1A222C"/>
<path d="M63.5578 61.6585H53.4259V51.5532C53.4895 51.0821 53.4516 50.6029 53.3148 50.1476C53.1779 49.6924 52.9453 49.2717 52.6325 48.9138C52.3196 48.5558 51.9338 48.269 51.501 48.0724C51.0682 47.8759 50.5983 47.7742 50.123 47.7742C49.6476 47.7742 49.1777 47.8759 48.7449 48.0724C48.3121 48.269 47.9263 48.5558 47.6135 48.9138C47.3006 49.2717 47.068 49.6924 46.9312 50.1476C46.7943 50.6029 46.7564 51.0821 46.8201 51.5532V61.6585H36.6881C35.8835 61.7609 35.1439 62.1532 34.6078 62.7618C34.0717 63.3704 33.7759 64.1537 33.7759 64.9647C33.7759 65.7758 34.0717 66.559 34.6078 67.1677C35.1439 67.7763 35.8835 68.1686 36.6881 68.271H46.8201V78.3963C46.7564 78.8674 46.7943 79.3466 46.9312 79.8019C47.068 80.2571 47.3006 80.6778 47.6135 81.0357C47.9263 81.3937 48.3121 81.6805 48.7449 81.8771C49.1777 82.0736 49.6476 82.1753 50.123 82.1753C50.5983 82.1753 51.0682 82.0736 51.501 81.8771C51.9338 81.6805 52.3196 81.3937 52.6325 81.0357C52.9453 80.6778 53.1779 80.2571 53.3148 79.8019C53.4516 79.3466 53.4895 78.8674 53.4259 78.3963V68.3243H63.5578C64.3624 68.2219 65.102 67.8296 65.6381 67.221C66.1742 66.6124 66.47 65.8291 66.47 65.0181C66.47 64.207 66.1742 63.4238 65.6381 62.8151C65.102 62.2065 64.3624 61.8142 63.5578 61.7118V61.6585Z" fill="#00C7D8"/>
</g>
<defs>
<clipPath id="clip0">
<rect x="0.63208" width="100" height="100" rx="8" fill="white"/>
</clipPath>
</defs>
</svg>