<svg width="101" height="101" viewBox="0 0 101 101" fill="none" xmlns="http://www.w3.org/2000/svg">
<path d="M78.6772 10.0479H70.3283C70.1955 8.66308 69.5502 7.37783 68.519 6.44404C67.4878 5.51026 66.145 4.99527 64.7539 5.00003H36.4191C35.0321 5.00297 33.6956 5.5211 32.6691 6.45386C31.6426 7.38663 30.9992 8.6675 30.8639 10.0479H22.56C19.4967 10.0564 16.5613 11.277 14.3952 13.4431C12.2291 15.6092 11.0085 18.5446 11 21.6079V86.44C11.0085 89.5033 12.2291 92.4387 14.3952 94.6048C16.5613 96.7709 19.4967 97.9915 22.56 98H78.6644C81.7303 98 84.6706 96.7821 86.8385 94.6142C89.0064 92.4462 90.2243 89.5059 90.2243 86.44V21.6271C90.2269 20.1085 89.9302 18.6043 89.3512 17.2004C88.7722 15.7965 87.9222 14.5204 86.8499 13.4451C85.7775 12.3698 84.5038 11.5163 83.1015 10.9334C81.6992 10.3505 80.1958 10.0496 78.6772 10.0479ZM83.8467 87.1461C83.8467 88.3384 83.373 89.4818 82.53 90.3249C81.6869 91.168 80.5434 91.6416 79.3511 91.6416L22.56 90.9677C21.3677 90.9677 20.2242 90.4941 19.3811 89.651C18.5381 88.8079 18.0644 87.6644 18.0644 86.4722L17.3905 20.9532C17.3905 19.7609 17.8642 18.6175 18.7072 17.7744C19.5503 16.9313 20.6938 16.4577 21.8861 16.4577H30.8382V20.3574H70.3348V16.4384H79.3576C80.5498 16.4384 81.6933 16.912 82.5364 17.7551C83.3795 18.5982 83.8531 19.7417 83.8531 20.9339L83.8467 87.1461Z" fill="#1A222C"/>
<path d="M73.1693 40.3318H52.6082C51.9596 40.3318 51.3376 40.0702 50.8789 39.6045C50.4203 39.1388 50.1627 38.5072 50.1627 37.8486C50.1627 37.1901 50.4203 36.5585 50.8789 36.0928C51.3376 35.6271 51.9596 35.3655 52.6082 35.3655H73.1693C73.8179 35.3655 74.44 35.6271 74.8986 36.0928C75.3572 36.5585 75.6149 37.1901 75.6149 37.8486C75.6149 38.5072 75.3572 39.1388 74.8986 39.6045C74.44 40.0702 73.8179 40.3318 73.1693 40.3318Z" fill="#00C7D8"/>
<path d="M34.4567 44.6772C34.1257 44.6777 33.798 44.6108 33.4941 44.4807C33.1901 44.3505 32.9163 44.1599 32.6895 43.9206L27.8477 38.768C27.4087 38.303 27.1739 37.6839 27.1949 37.047C27.2159 36.4102 27.491 35.8077 27.9597 35.372C28.4284 34.9364 29.0523 34.7034 29.6942 34.7243C30.336 34.7451 30.9432 35.0181 31.3822 35.4831L34.4749 38.762L41.6286 31.1593C42.0676 30.6943 42.6748 30.4213 43.3166 30.4005C43.9585 30.3796 44.5824 30.6126 45.0511 31.0482C45.5198 31.4838 45.7949 32.0864 45.8159 32.7232C45.8369 33.3601 45.6021 33.9792 45.163 34.4442L36.224 43.9206C35.9972 44.1599 35.7234 44.3505 35.4194 44.4807C35.1154 44.6108 34.7878 44.6777 34.4567 44.6772Z" fill="#00C7D8"/>
<path d="M73.1693 58.3345H52.6082C51.9596 58.3345 51.3376 58.0728 50.8789 57.6072C50.4203 57.1415 50.1627 56.5099 50.1627 55.8513C50.1627 55.1927 50.4203 54.5611 50.8789 54.0955C51.3376 53.6298 51.9596 53.3682 52.6082 53.3682H73.1693C73.8179 53.3682 74.44 53.6298 74.8986 54.0955C75.3572 54.5611 75.6149 55.1927 75.6149 55.8513C75.6149 56.5099 75.3572 57.1415 74.8986 57.6072C74.44 58.0728 73.8179 58.3345 73.1693 58.3345Z" fill="#00C7D8"/>
<path d="M34.4696 63.3007C34.1415 63.3028 33.8165 63.2352 33.5145 63.1022C33.2125 62.9692 32.9399 62.7735 32.7135 62.5272L27.9022 57.1752C27.6731 56.9388 27.4924 56.6569 27.3707 56.3463C27.249 56.0358 27.1888 55.703 27.1939 55.3678C27.1989 55.0326 27.2691 54.702 27.4001 54.3955C27.5311 54.0891 27.7202 53.8131 27.9563 53.5842C28.1924 53.3553 28.4706 53.178 28.7742 53.0631C29.0777 52.9481 29.4006 52.8977 29.7233 52.915C30.0461 52.9323 30.3622 53.0169 30.6528 53.1637C30.9433 53.3105 31.2024 53.5165 31.4145 53.7695L34.4877 57.169L41.5963 49.2596C41.8084 49.0067 42.0675 48.8006 42.358 48.6538C42.6486 48.507 42.9647 48.4225 43.2875 48.4052C43.6102 48.3879 43.933 48.4382 44.2366 48.5532C44.5402 48.6682 44.8184 48.8454 45.0545 49.0743C45.2905 49.3033 45.4797 49.5792 45.6107 49.8856C45.7417 50.1921 45.8118 50.5228 45.8169 50.8579C45.8219 51.1931 45.7618 51.5259 45.6401 51.8365C45.5184 52.147 45.3376 52.4289 45.1086 52.6654L36.2257 62.5272C35.9994 62.7735 35.7268 62.9692 35.4248 63.1022C35.1228 63.2352 34.7977 63.3028 34.4696 63.3007Z" fill="#00C7D8"/>
<path d="M73.1693 76.3374H52.6082C51.9596 76.3374 51.3376 76.0758 50.8789 75.6101C50.4203 75.1444 50.1627 74.5128 50.1627 73.8542C50.1627 73.1957 50.4203 72.5641 50.8789 72.0984C51.3376 71.6327 51.9596 71.3711 52.6082 71.3711H73.1693C73.8179 71.3711 74.44 71.6327 74.8986 72.0984C75.3572 72.5641 75.6149 73.1957 75.6149 73.8542C75.6149 74.5128 75.3572 75.1444 74.8986 75.6101C74.44 76.0758 73.8179 76.3374 73.1693 76.3374Z" fill="#00C7D8"/>
<path d="M34.4567 81.3037C34.1252 81.3034 33.7973 81.2327 33.4933 81.096C33.1893 80.9593 32.9157 80.7596 32.6895 80.5092L27.8477 75.1479C27.4087 74.6634 27.1739 74.0185 27.1949 73.3551C27.2159 72.6916 27.491 72.064 27.9597 71.6102C28.4284 71.1564 29.0523 70.9137 29.6942 70.9354C30.336 70.9571 30.9432 71.2414 31.3822 71.7259L34.4567 75.1166L41.6286 67.1967C41.846 66.9568 42.1069 66.7635 42.3965 66.6279C42.6862 66.4922 42.9988 66.4169 43.3166 66.4061C43.6345 66.3954 43.9512 66.4494 44.2488 66.5652C44.5464 66.681 44.819 66.8562 45.0511 67.0809C45.2832 67.3056 45.4702 67.5754 45.6014 67.8748C45.7326 68.1741 45.8055 68.4973 45.8159 68.8258C45.8263 69.1543 45.774 69.4817 45.662 69.7893C45.55 70.0969 45.3804 70.3787 45.1631 70.6186L36.224 80.5092C35.9977 80.7596 35.7241 80.9593 35.4201 81.096C35.1161 81.2327 34.7882 81.3034 34.4567 81.3037Z" fill="#00C7D8"/>
</svg>
