<svg width="101" height="101" viewBox="0 0 101 101" fill="none" xmlns="http://www.w3.org/2000/svg">
<g clip-path="url(#clip0)">
<path d="M81.6425 69.6805C78.8117 66.0621 78.8317 61.3439 78.8618 54.8116C79.0275 48.9059 78.6547 42.9975 77.7476 37.1543C76.2418 28.3352 69.7168 21.996 59.337 19.1013C59.3395 16.9773 58.5487 14.923 57.1085 13.312C56.3925 12.4874 55.4967 11.8239 54.4845 11.3687C53.4724 10.9135 52.3685 10.6775 51.251 10.6775C50.1335 10.6775 49.0297 10.9135 48.0175 11.3687C47.0054 11.8239 46.1096 12.4874 45.3936 13.312C43.9557 14.9243 43.1652 16.9778 43.165 19.1013C36.2786 21.0311 26.712 25.6818 24.7545 37.1639C23.8467 42.9941 23.4738 48.8897 23.6402 54.7827C23.6402 61.3246 23.7004 66.0429 20.8595 69.6901C17.065 74.5049 15.7399 77.689 16.4627 80.0336C16.6171 80.5721 16.8997 81.0687 17.2882 81.484C17.6768 81.8993 18.1605 82.222 18.7013 82.4265L19.2032 82.6002H37.2724C37.7653 85.476 39.071 88.1663 41.0469 90.3772C42.2883 91.8228 43.8467 92.9869 45.6108 93.7859C47.3749 94.585 49.3009 94.9994 51.251 94.9994C53.2012 94.9994 55.1272 94.585 56.8913 93.7859C58.6553 92.9869 60.2138 91.8228 61.4551 90.3772C63.4348 88.1664 64.7471 85.4769 65.2497 82.6002H83.3189L83.8409 82.4169C84.3766 82.2042 84.8544 81.8761 85.2373 81.4579C85.6202 81.0397 85.898 80.5425 86.0494 80.0047C86.7621 77.6504 85.3969 74.5049 81.6425 69.6805ZM56.9177 86.5755C56.2411 87.3971 55.3798 88.0608 54.3985 88.5171C53.4172 88.9734 52.3412 89.2104 51.251 89.2104C50.1609 89.2104 49.0849 88.9734 48.1036 88.5171C47.1222 88.0608 46.261 87.3971 45.5843 86.5755C44.5698 85.4276 43.8358 84.0759 43.4361 82.6195H59.066C58.6663 84.0759 57.9322 85.4276 56.9177 86.5755ZM23.7547 76.8109C24.514 75.5296 25.366 74.3012 26.3045 73.1347C30.3199 67.934 30.3199 61.8167 30.3199 54.7248C30.142 49.1527 30.4779 43.5764 31.3238 38.0613C32.8596 29.0493 40.2739 26.1586 46.7789 24.7981L49.1881 24.306V19.7518C49.1753 19.0038 49.4384 18.2757 49.931 17.6966C50.0854 17.5007 50.285 17.3418 50.514 17.2324C50.743 17.1231 50.9953 17.0661 51.251 17.0661C51.5068 17.0661 51.759 17.1231 51.988 17.2324C52.2171 17.3418 52.4166 17.5007 52.5711 17.6966C53.0636 18.2757 53.3268 19.0038 53.3139 19.7518V24.2867L55.6629 24.7981C62.1779 26.2068 69.6023 29.1554 71.1381 38.0709C71.9838 43.5958 72.3197 49.1817 72.142 54.7634C72.142 61.8456 72.0818 67.963 76.1574 73.1444C77.097 74.3033 77.9491 75.5254 78.7071 76.8013L23.7547 76.8109Z" fill="#1A222C"/>
<path d="M85.9189 46.9864C85.5693 46.9818 85.2257 46.8992 84.915 46.7452C84.5915 46.5737 84.3106 46.3366 84.0919 46.0505C83.8702 45.7604 83.7068 45.4332 83.61 45.0856C83.5344 44.7095 83.5344 44.3231 83.61 43.947C85.9088 28.5089 73.6519 21.7547 73.5715 21.6679C73.2586 21.5053 72.9828 21.2841 72.7603 21.0173C72.5379 20.7504 72.3734 20.4434 72.2766 20.1144C72.0658 19.4474 72.1049 18.7304 72.387 18.0882C72.5103 17.7886 72.6946 17.5156 72.929 17.2853C73.1634 17.055 73.4433 16.872 73.7522 16.747C74.049 16.6357 74.3677 16.5892 74.6854 16.6109C75.0032 16.6326 75.3119 16.7219 75.5893 16.8724C75.7399 16.9593 91.1489 25.4792 88.2879 44.7575C88.2095 45.3606 87.9233 45.9211 87.4748 46.3496C87.2724 46.5496 87.0306 46.709 86.7634 46.8183C86.4963 46.9276 86.2092 46.9848 85.9189 46.9864Z" fill="#00C7D8"/>
<path d="M16.6032 46.9866C16.0223 46.9801 15.4673 46.7549 15.0573 46.3594C14.6169 45.9266 14.335 45.3677 14.2542 44.7673C11.3832 25.4697 26.7922 16.9691 26.9529 16.8822C27.2274 16.7292 27.5347 16.6384 27.8513 16.6167C28.1679 16.5949 28.4854 16.6429 28.7799 16.7568C29.3906 17.0134 29.8707 17.4922 30.115 18.0883C30.3947 18.7307 30.4372 19.4458 30.2354 20.1146C30.0683 20.7357 29.6678 21.2754 29.1111 21.6294C28.5891 21.9093 16.7538 28.5766 19.0727 43.9086C19.1663 44.5793 19.0175 45.2605 18.651 45.8383C18.483 46.1107 18.2579 46.3465 17.99 46.5309C17.7222 46.7152 17.4174 46.8441 17.0951 46.9094C16.9341 46.9502 16.7693 46.9761 16.6032 46.9866Z" fill="#00C7D8"/>
<path d="M3.16164 46.8513C2.84286 46.8044 2.53953 46.6878 2.275 46.5105C2.01047 46.3331 1.79179 46.0998 1.63579 45.8285C1.21204 45.1395 0.993277 44.3518 1.00337 43.5514C0.722292 16.6119 18.119 6.37451 18.3097 6.27802C18.5975 6.09663 18.9342 6 19.2784 6C19.6226 6 19.9593 6.09663 20.2471 6.27802C20.9119 6.76421 21.3602 7.47444 21.5019 8.26568C21.7012 9.19665 21.6423 10.1616 21.3313 11.0638C21.09 11.869 20.5647 12.5683 19.8456 13.0418C19.2634 13.3796 5.88207 21.4363 6.09288 42.8471C6.11833 43.7965 5.87177 44.7345 5.38015 45.5584C5.20062 45.8896 4.94749 46.1789 4.6387 46.4057C4.32991 46.6325 3.97301 46.7912 3.5933 46.8706C3.44918 46.8836 3.30388 46.8771 3.16164 46.8513Z" fill="#00C7D8"/>
<path d="M98.3766 46.832C98.006 46.7531 97.6573 46.5985 97.3542 46.3787C97.0511 46.159 96.8007 45.8792 96.6199 45.5584C96.1353 44.7458 95.889 43.8221 95.9071 42.8857C96.1179 21.4363 82.7366 13.3796 82.1544 13.0418C81.4446 12.5804 80.9203 11.8995 80.6687 11.1121C80.3577 10.2099 80.2988 9.2449 80.4981 8.31392C80.6237 7.50382 81.0741 6.7731 81.7529 6.27802C82.0407 6.09663 82.3774 6 82.7216 6C83.0658 6 83.4025 6.09663 83.6903 6.27802C83.871 6.37451 101.278 16.6119 100.997 43.5514C101.013 44.35 100.801 45.1375 100.384 45.8285C100.228 46.1015 100.008 46.3359 99.7413 46.5133C99.4749 46.6908 99.1692 46.8065 98.8484 46.8513C98.6911 46.8691 98.5318 46.8626 98.3766 46.832Z" fill="#00C7D8"/>
</g>
<defs>
<clipPath id="clip0">
<rect x="0.63208" y="0.482178" width="100" height="100" rx="8" fill="white"/>
</clipPath>
</defs>
</svg>
