<svg width="101" height="101" viewBox="0 0 101 101" fill="none" xmlns="http://www.w3.org/2000/svg">
<path d="M5.50272 69.2556C4.81138 69.2438 4.13838 69.0312 3.56578 68.6436C2.99319 68.256 2.54573 67.7102 2.27798 67.0727C2.01024 66.4352 1.93376 65.7336 2.05788 65.0534C2.182 64.3732 2.50135 63.7438 2.977 63.2419L43.569 22.65C44.239 21.9862 45.144 21.6138 46.0872 21.6138C47.0303 21.6138 47.9353 21.9862 48.6054 22.65L61.4895 35.5342L84.8525 12.1261H72.6111C72.1432 12.1261 71.6799 12.034 71.2476 11.8549C70.8153 11.6759 70.4225 11.4134 70.0917 11.0825C69.7608 10.7517 69.4983 10.3589 69.3193 9.9266C69.1402 9.49431 69.048 9.03098 69.048 8.56307C69.048 8.09516 69.1402 7.63183 69.3193 7.19954C69.4983 6.76725 69.7608 6.37446 70.0917 6.0436C70.4225 5.71274 70.8153 5.45028 71.2476 5.27122C71.6799 5.09216 72.1432 5 72.6111 5L93.4519 5C93.916 5.00416 94.3751 5.09598 94.805 5.27061C95.2339 5.45448 95.626 5.71422 95.9626 6.03735C96.2955 6.36605 96.5566 6.76023 96.7294 7.19497C96.9096 7.61796 97.0016 8.07324 97 8.533V29.9C96.9412 30.803 96.5411 31.6499 95.8807 32.2687C95.2204 32.8874 94.3494 33.2318 93.4444 33.2318C92.5395 33.2318 91.6684 32.8874 91.0081 32.2687C90.3478 31.6499 89.9476 30.803 89.8889 29.9V17.1625L63.9401 43.0963C63.6103 43.4256 63.2188 43.6868 62.788 43.8648C62.3572 44.0428 61.8955 44.1341 61.4294 44.1336C60.9633 44.1341 60.5016 44.0428 60.0708 43.8648C59.6401 43.6868 59.2486 43.4256 58.9187 43.0963L46.0195 30.2121L7.95327 68.2182C7.30194 68.8688 6.42322 69.2408 5.50272 69.2556Z" fill="#1A222C"/>
<path d="M5.42753 97.1677C4.654 97.1677 3.91215 96.8604 3.36518 96.3134C2.81821 95.7664 2.51093 95.0246 2.51093 94.251V84.6293C2.51093 83.8557 2.81821 83.1139 3.36518 82.5669C3.91215 82.0199 4.654 81.7126 5.42753 81.7126C6.20106 81.7126 6.94291 82.0199 7.48988 82.5669C8.03685 83.1139 8.34414 83.8557 8.34414 84.6293V94.251C8.34414 94.6341 8.2687 95.0133 8.12212 95.3672C7.97555 95.721 7.76072 96.0426 7.48988 96.3134C7.21905 96.5842 6.89753 96.7991 6.54367 96.9456C6.18981 97.0922 5.81055 97.1677 5.42753 97.1677Z" fill="#00C7D8"/>
<path d="M17.996 97.1675C17.6137 97.1675 17.2352 97.092 16.8821 96.9452C16.5291 96.7985 16.2086 96.5834 15.9389 96.3123C15.6693 96.0413 15.4559 95.7197 15.311 95.3659C15.166 95.0121 15.0925 94.6332 15.0944 94.2509V71.9103C15.0657 71.5107 15.1196 71.1094 15.2528 70.7316C15.3859 70.3537 15.5955 70.0073 15.8685 69.714C16.1414 69.4208 16.4719 69.1868 16.8392 69.0269C17.2065 68.867 17.6029 68.7844 18.0035 68.7844C18.4042 68.7844 18.8005 68.867 19.1679 69.0269C19.5352 69.1868 19.8656 69.4208 20.1386 69.714C20.4115 70.0073 20.6211 70.3537 20.7543 70.7316C20.8875 71.1094 20.9414 71.5107 20.9126 71.9103V94.2509C20.9126 95.0244 20.6053 95.7663 20.0584 96.3132C19.5114 96.8602 18.7695 97.1675 17.996 97.1675Z" fill="#00C7D8"/>
<path d="M30.8051 97.1677C30.0393 97.1678 29.3042 96.8667 28.7585 96.3295C28.2128 95.7922 27.9003 95.0619 27.8885 94.2962L27.4976 59.1767C27.4688 58.777 27.5227 58.3758 27.6559 57.9979C27.7891 57.6201 27.9987 57.2737 28.2716 56.9804C28.5445 56.6871 28.875 56.4532 29.2423 56.2933C29.6097 56.1333 30.006 56.0508 30.4067 56.0508C30.8073 56.0508 31.2037 56.1333 31.571 56.2933C31.9383 56.4532 32.2688 56.6871 32.5417 56.9804C32.8147 57.2737 33.0243 57.6201 33.1574 57.9979C33.2906 58.3758 33.3445 58.777 33.3157 59.1767L33.7217 94.1609C33.7337 94.5489 33.6681 94.9354 33.5288 95.2978C33.3895 95.6601 33.1793 95.991 32.9105 96.2711C32.6416 96.5511 32.3196 96.7747 31.9632 96.9287C31.6068 97.0826 31.2233 97.1639 30.8351 97.1677H30.8051Z" fill="#00C7D8"/>
<path d="M43.148 97.1674C42.3745 97.1674 41.6326 96.8601 41.0856 96.3132C40.5387 95.7662 40.2314 95.0243 40.2314 94.2508V45.766C40.2314 44.9924 40.5387 44.2506 41.0856 43.7036C41.6326 43.1566 42.3745 42.8494 43.148 42.8494C43.9215 42.8494 44.6634 43.1566 45.2103 43.7036C45.7573 44.2506 46.0646 44.9924 46.0646 45.766V94.2508C46.0646 95.0243 45.7573 95.7662 45.2103 96.3132C44.6634 96.8601 43.9215 97.1674 43.148 97.1674Z" fill="#00C7D8"/>
<path d="M55.7164 97.1674C55.3341 97.1675 54.9555 97.0919 54.6025 96.9452C54.2495 96.7984 53.929 96.5833 53.6593 96.3123C53.3897 96.0413 53.1763 95.7196 53.0314 95.3658C52.8864 95.0121 52.8128 94.6331 52.8148 94.2508V58.5299C52.7861 58.1303 52.84 57.7291 52.9732 57.3512C53.1063 56.9733 53.3159 56.627 53.5889 56.3337C53.8618 56.0404 54.1923 55.8065 54.5596 55.6465C54.9269 55.4866 55.3233 55.4041 55.7239 55.4041C56.1246 55.4041 56.5209 55.4866 56.8882 55.6465C57.2556 55.8065 57.586 56.0404 57.859 56.3337C58.1319 56.627 58.3415 56.9733 58.4747 57.3512C58.6079 57.7291 58.6618 58.1303 58.633 58.5299V94.2508C58.633 95.0244 58.3257 95.7662 57.7788 96.3132C57.2318 96.8602 56.4899 97.1674 55.7164 97.1674Z" fill="#00C7D8"/>
<path d="M68.4052 97.1675C67.6342 97.1675 66.8947 96.8623 66.3481 96.3186C65.8016 95.7749 65.4925 95.0369 65.4886 94.266L65.2781 50.8927C65.2493 50.4931 65.3032 50.0919 65.4364 49.714C65.5696 49.3361 65.7792 48.9897 66.0521 48.6965C66.3251 48.4032 66.6555 48.1693 67.0228 48.0093C67.3902 47.8494 67.7865 47.7668 68.1872 47.7668C68.5878 47.7668 68.9842 47.8494 69.3515 48.0093C69.7188 48.1693 70.0493 48.4032 70.3222 48.6965C70.5952 48.9897 70.8048 49.3361 70.9379 49.714C71.0711 50.0919 71.125 50.4931 71.0963 50.8927L71.3067 94.266C71.3208 94.6545 71.2567 95.0419 71.1182 95.4052C70.9796 95.7685 70.7695 96.1002 70.5002 96.3807C70.231 96.6611 69.9081 96.8846 69.5508 97.0379C69.1935 97.1911 68.809 97.271 68.4202 97.2728L68.4052 97.1675Z" fill="#00C7D8"/>
<path d="M80.8684 97.1677C80.0949 97.1677 79.3531 96.8604 78.8061 96.3135C78.2591 95.7665 77.9518 95.0247 77.9518 94.2511V38.0538C77.9518 37.2803 78.2591 36.5384 78.8061 35.9915C79.3531 35.4445 80.0949 35.1372 80.8684 35.1372C81.642 35.1372 82.3838 35.4445 82.9308 35.9915C83.4778 36.5384 83.7851 37.2803 83.7851 38.0538V94.2511C83.7851 94.6341 83.7096 95.0134 83.563 95.3673C83.4165 95.7211 83.2016 96.0426 82.9308 96.3135C82.66 96.5843 82.3384 96.7991 81.9846 96.9457C81.6307 97.0923 81.2515 97.1677 80.8684 97.1677Z" fill="#00C7D8"/>
<path d="M93.437 97.1676C93.0547 97.1676 92.6761 97.0921 92.3231 96.9453C91.9701 96.7985 91.6496 96.5835 91.3799 96.3124C91.1103 96.0414 90.8969 95.7198 90.7519 95.366C90.607 95.0122 90.5334 94.6333 90.5354 94.251V48.5775C90.5067 48.1779 90.5606 47.7767 90.6937 47.3988C90.8269 47.0209 91.0365 46.6746 91.3094 46.3813C91.5824 46.088 91.9128 45.8541 92.2802 45.6941C92.6475 45.5342 93.0439 45.4517 93.4445 45.4517C93.8451 45.4517 94.2415 45.5342 94.6088 45.6941C94.9762 45.8541 95.3066 46.088 95.5796 46.3813C95.8525 46.6746 96.0621 47.0209 96.1953 47.3988C96.3284 47.7767 96.3823 48.1779 96.3536 48.5775V94.251C96.3536 95.0245 96.0463 95.7664 95.4993 96.3133C94.9524 96.8603 94.2105 97.1676 93.437 97.1676Z" fill="#00C7D8"/>
</svg>
