<svg width="101" height="101" viewBox="0 0 101 101" fill="none" xmlns="http://www.w3.org/2000/svg">
<g clip-path="url(#clip0)">
<path d="M16.4613 84.9869C8.44312 84.9869 7.05414 71.9353 6.71321 62.1187C6.51749 56.6177 5.04013 52.9784 3.46806 49.1228C1.1952 43.5452 -1.14712 37.7863 0.620666 27.2865C1.35935 22.671 3.22184 19.2966 6.12606 17.2398C11.7325 13.2727 19.5991 15.4898 24.8078 16.954C26.0683 17.3658 27.3559 17.6688 28.659 17.8603C29.96 17.6686 31.2455 17.3656 32.5039 16.954C37.7126 15.4898 45.5792 13.2727 51.1856 17.2398C54.0899 19.3314 55.9524 22.678 56.7163 27.2865C58.4588 37.7863 56.1165 43.5452 53.8436 49.1228C52.2779 52.9784 50.7942 56.6177 50.5985 62.1187C50.2576 71.9353 48.8686 84.9869 40.8504 84.9869C35.5597 84.9869 33.4699 77.8754 31.4433 70.994C30.7235 68.5469 29.5871 64.6774 28.659 63.1854C27.7246 64.6774 26.5882 68.5469 25.8684 70.994C23.8418 77.8754 21.752 84.9869 16.4613 84.9869ZM28.659 56.4992H28.7285C33.1921 56.6247 34.9725 62.6625 36.8476 69.0488C37.6621 71.8377 39.5561 78.2589 40.8694 78.7121C42.454 78.7121 44.487 74.2988 44.9226 61.8677C45.1625 55.1536 47.0187 50.58 48.6665 46.5292C50.75 41.3978 52.5494 36.9706 51.1288 28.402C50.6553 25.5365 49.6704 23.6053 48.1236 22.5107C44.5943 20.0147 38.1672 21.8135 33.9119 23.0196C31.7337 23.6331 30.0164 24.1212 28.659 24.1212C27.3016 24.1212 25.578 23.6331 23.3998 23.0196C19.1508 21.8274 12.7174 20.0147 9.19443 22.5107C7.64761 23.6053 6.66902 25.5365 6.18288 28.402C4.76234 36.9776 6.56169 41.4118 8.65146 46.5292C10.293 50.566 12.1492 55.1397 12.3891 61.8677C12.8247 74.2988 14.8577 78.7051 16.4613 78.7051C17.7556 78.2589 19.6496 71.8028 20.4641 69.0488C22.3581 62.6555 24.1196 56.6177 28.5896 56.4992H28.659Z" fill="#1A222C"/>
<path d="M97.1325 24.9757H63.4853C62.7298 24.9757 62.0052 24.6609 61.4709 24.1005C60.9367 23.5401 60.6365 22.78 60.6365 21.9875C60.6365 21.195 60.9367 20.4349 61.4709 19.8745C62.0052 19.3141 62.7298 18.9993 63.4853 18.9993H97.1325C97.888 18.9993 98.6126 19.3141 99.1469 19.8745C99.6811 20.4349 99.9813 21.195 99.9813 21.9875C99.9813 22.78 99.6811 23.5401 99.1469 24.1005C98.6126 24.6609 97.888 24.9757 97.1325 24.9757Z" fill="#00C7D8"/>
<path d="M97.1325 38.9506H63.4853C62.7298 38.9506 62.0052 38.6357 61.4709 38.0753C60.9367 37.5149 60.6365 36.7549 60.6365 35.9623C60.6365 35.1698 60.9367 34.4098 61.4709 33.8494C62.0052 33.289 62.7298 32.9741 63.4853 32.9741H97.1325C97.888 32.9741 98.6126 33.289 99.1469 33.8494C99.6811 34.4098 99.9813 35.1698 99.9813 35.9623C99.9813 36.7549 99.6811 37.5149 99.1469 38.0753C98.6126 38.6357 97.888 38.9506 97.1325 38.9506Z" fill="#00C7D8"/>
<path d="M97.1325 52.9254H63.4853C62.7298 52.9254 62.0052 52.6106 61.4709 52.0502C60.9367 51.4898 60.6365 50.7297 60.6365 49.9372C60.6365 49.1447 60.9367 48.3846 61.4709 47.8242C62.0052 47.2638 62.7298 46.949 63.4853 46.949H97.1325C97.888 46.949 98.6126 47.2638 99.1469 47.8242C99.6811 48.3846 99.9813 49.1447 99.9813 49.9372C99.9813 50.7297 99.6811 51.4898 99.1469 52.0502C98.6126 52.6106 97.888 52.9254 97.1325 52.9254Z" fill="#00C7D8"/>
<path d="M97.1325 66.9005H63.4853C62.7298 66.9005 62.0052 66.5857 61.4709 66.0253C60.9367 65.4649 60.6365 64.7048 60.6365 63.9123C60.6365 63.1198 60.9367 62.3597 61.4709 61.7993C62.0052 61.2389 62.7298 60.9241 63.4853 60.9241H97.1325C97.888 60.9241 98.6126 61.2389 99.1469 61.7993C99.6811 62.3597 99.9813 63.1198 99.9813 63.9123C99.9813 64.7048 99.6811 65.4649 99.1469 66.0253C98.6126 66.5857 97.888 66.9005 97.1325 66.9005Z" fill="#00C7D8"/>
<path d="M97.1512 80.8756H63.504C62.7485 80.8756 62.0239 80.5608 61.4897 80.0004C60.9554 79.44 60.6553 78.6799 60.6553 77.8874C60.6553 77.0949 60.9554 76.3348 61.4897 75.7744C62.0239 75.214 62.7485 74.8992 63.504 74.8992H97.1512C97.9068 74.8992 98.6314 75.214 99.1656 75.7744C99.6999 76.3348 100 77.0949 100 77.8874C100 78.6799 99.6999 79.44 99.1656 80.0004C98.6314 80.5608 97.9068 80.8756 97.1512 80.8756Z" fill="#00C7D8"/>
</g>
<defs>
<clipPath id="clip0">
<rect x="0.224609" y="0.482422" width="100" height="100" rx="8" fill="white"/>
</clipPath>
</defs>
</svg>
